M48
; DRILL file {KiCad 9.0.6-9.0.6~ubuntu24.04.1} date 2025-12-19T01:03:33-0500
; FORMAT={-:-/ absolute / metric / decimal}
; #@! TF.CreationDate,2025-12-19T01:03:33-05:00
; #@! TF.GenerationSoftware,Kicad,Pcbnew,9.0.6-9.0.6~ubuntu24.04.1
; #@! TF.FileFunction,Plated,1,2,PTH
FMAT,2
METRIC
; #@! TA.AperFunction,Plated,PTH,ViaDrill
T1C0.300
; #@! TA.AperFunction,Plated,PTH,ComponentDrill
T2C0.600
; #@! TA.AperFunction,Plated,PTH,ComponentDrill
T3C0.700
; #@! TA.AperFunction,Plated,PTH,ComponentDrill
T4C0.750
; #@! TA.AperFunction,Plated,PTH,ComponentDrill
T5C0.800
; #@! TA.AperFunction,Plated,PTH,ComponentDrill
T6C0.900
; #@! TA.AperFunction,Plated,PTH,ComponentDrill
T7C1.000
; #@! TA.AperFunction,Plated,PTH,ComponentDrill
T8C1.520
%
G90
G05
T1
X38.0Y-93.0
X42.236Y-93.0
X54.0Y-93.674
X54.0Y-97.5
X62.5Y-92.5
X63.0Y-98.5
X73.0Y-67.5
X78.5Y-87.0
X80.5Y-67.5
X91.5Y-92.0
X92.5Y-91.0
X92.674Y-79.0
X93.416Y-92.916
X93.5Y-69.0
X93.5Y-90.0
X94.0Y-98.5
X96.0Y-68.5
X97.0Y-86.0
X97.0Y-90.5
X97.5Y-66.5
X98.5Y-85.0
X104.5Y-79.0
X104.5Y-82.0
X105.5Y-81.0
X106.5Y-82.5
T2
X60.5Y-105.96
X62.0Y-105.96
X122.0Y-87.777
X122.0Y-89.277
X123.5Y-62.277
X123.5Y-63.777
T3
X47.0Y-102.96
X47.0Y-110.58
T4
X54.0Y-105.46
X54.0Y-106.73
X54.0Y-108.0
T5
X101.6Y-87.61
X101.6Y-90.15
X101.6Y-92.69
X101.6Y-95.23
X101.6Y-97.77
X101.6Y-100.31
X101.6Y-102.85
X101.6Y-105.39
X101.64Y-62.11
X101.64Y-64.65
X101.64Y-67.19
X101.64Y-69.73
X101.64Y-72.27
X101.64Y-74.81
X101.64Y-77.35
X101.64Y-79.89
X114.3Y-87.61
X114.3Y-90.15
X114.3Y-92.69
X114.3Y-95.23
X114.3Y-97.77
X114.3Y-100.31
X114.3Y-102.85
X114.3Y-105.39
X114.34Y-62.11
X114.34Y-64.65
X114.34Y-67.19
X114.34Y-69.73
X114.34Y-72.27
X114.34Y-74.81
X114.34Y-77.35
X114.34Y-79.89
T6
X68.5Y-54.5
X71.04Y-54.5
X75.225Y-54.5
X77.765Y-54.5
X82.16Y-54.5
X84.7Y-54.5
T7
X38.72Y-71.22
X38.72Y-89.0
X41.26Y-71.22
X41.26Y-89.0
X43.8Y-71.22
X43.8Y-89.0
X46.0Y-115.46
X46.34Y-71.22
X46.34Y-89.0
X48.54Y-115.46
X48.88Y-71.22
X48.88Y-89.0
X51.08Y-115.46
X51.42Y-71.22
X51.42Y-89.0
X53.62Y-115.46
X53.96Y-71.22
X53.96Y-89.0
X56.16Y-115.46
X56.5Y-71.22
X56.5Y-89.0
X59.04Y-71.22
X59.04Y-89.0
X61.58Y-71.22
X61.58Y-89.0
X64.12Y-71.22
X64.12Y-89.0
X66.66Y-71.22
X66.66Y-89.0
X69.2Y-71.22
X69.2Y-89.0
X71.74Y-71.22
X71.74Y-89.0
X74.28Y-71.22
X74.28Y-89.0
X76.82Y-71.22
X76.82Y-89.0
X79.36Y-71.22
X79.36Y-89.0
X81.9Y-71.22
X81.9Y-89.0
X84.44Y-71.22
X84.44Y-89.0
X86.98Y-71.22
X86.98Y-89.0
X121.38Y-69.0
X121.38Y-71.54
X121.38Y-74.08
X121.38Y-76.62
X122.0Y-95.69
X122.0Y-98.23
X122.0Y-100.77
X122.0Y-103.31
T8
X131.0Y-79.96
X131.0Y-85.04
M30
