%TF.GenerationSoftware,KiCad,Pcbnew,9.0.6-9.0.6~ubuntu24.04.1*%
%TF.CreationDate,2025-12-19T01:03:36-05:00*%
%TF.ProjectId,pilomar_schematics,70696c6f-6d61-4725-9f73-6368656d6174,rev?*%
%TF.SameCoordinates,Original*%
%TF.FileFunction,Legend,Top*%
%TF.FilePolarity,Positive*%
%FSLAX46Y46*%
G04 Gerber Fmt 4.6, Leading zero omitted, Abs format (unit mm)*
G04 Created by KiCad (PCBNEW 9.0.6-9.0.6~ubuntu24.04.1) date 2025-12-19 01:03:36*
%MOMM*%
%LPD*%
G01*
G04 APERTURE LIST*
%ADD10C,0.100000*%
%ADD11C,0.150000*%
%ADD12C,0.120000*%
G04 APERTURE END LIST*
D10*
X84333333Y-109257419D02*
X83761905Y-109257419D01*
X84047619Y-109257419D02*
X84047619Y-108257419D01*
X84047619Y-108257419D02*
X83952381Y-108400276D01*
X83952381Y-108400276D02*
X83857143Y-108495514D01*
X83857143Y-108495514D02*
X83761905Y-108543133D01*
X85285714Y-109257419D02*
X84714286Y-109257419D01*
X85000000Y-109257419D02*
X85000000Y-108257419D01*
X85000000Y-108257419D02*
X84904762Y-108400276D01*
X84904762Y-108400276D02*
X84809524Y-108495514D01*
X84809524Y-108495514D02*
X84714286Y-108543133D01*
X85904762Y-108257419D02*
X86000000Y-108257419D01*
X86000000Y-108257419D02*
X86095238Y-108305038D01*
X86095238Y-108305038D02*
X86142857Y-108352657D01*
X86142857Y-108352657D02*
X86190476Y-108447895D01*
X86190476Y-108447895D02*
X86238095Y-108638371D01*
X86238095Y-108638371D02*
X86238095Y-108876466D01*
X86238095Y-108876466D02*
X86190476Y-109066942D01*
X86190476Y-109066942D02*
X86142857Y-109162180D01*
X86142857Y-109162180D02*
X86095238Y-109209800D01*
X86095238Y-109209800D02*
X86000000Y-109257419D01*
X86000000Y-109257419D02*
X85904762Y-109257419D01*
X85904762Y-109257419D02*
X85809524Y-109209800D01*
X85809524Y-109209800D02*
X85761905Y-109162180D01*
X85761905Y-109162180D02*
X85714286Y-109066942D01*
X85714286Y-109066942D02*
X85666667Y-108876466D01*
X85666667Y-108876466D02*
X85666667Y-108638371D01*
X85666667Y-108638371D02*
X85714286Y-108447895D01*
X85714286Y-108447895D02*
X85761905Y-108352657D01*
X85761905Y-108352657D02*
X85809524Y-108305038D01*
X85809524Y-108305038D02*
X85904762Y-108257419D01*
X30000000Y-114400000D02*
X30000000Y-109313580D01*
X140000000Y-109313580D02*
X140000000Y-114400000D01*
X30000000Y-109900000D02*
X140000000Y-109900000D01*
X30000000Y-109900000D02*
X31126504Y-109313579D01*
X30000000Y-109900000D02*
X31126504Y-110486421D01*
X140000000Y-109900000D02*
X138873496Y-110486421D01*
X140000000Y-109900000D02*
X138873496Y-109313579D01*
X34857419Y-85238095D02*
X34857419Y-85714285D01*
X34857419Y-85714285D02*
X35333609Y-85761904D01*
X35333609Y-85761904D02*
X35285990Y-85714285D01*
X35285990Y-85714285D02*
X35238371Y-85619047D01*
X35238371Y-85619047D02*
X35238371Y-85380952D01*
X35238371Y-85380952D02*
X35285990Y-85285714D01*
X35285990Y-85285714D02*
X35333609Y-85238095D01*
X35333609Y-85238095D02*
X35428847Y-85190476D01*
X35428847Y-85190476D02*
X35666942Y-85190476D01*
X35666942Y-85190476D02*
X35762180Y-85238095D01*
X35762180Y-85238095D02*
X35809800Y-85285714D01*
X35809800Y-85285714D02*
X35857419Y-85380952D01*
X35857419Y-85380952D02*
X35857419Y-85619047D01*
X35857419Y-85619047D02*
X35809800Y-85714285D01*
X35809800Y-85714285D02*
X35762180Y-85761904D01*
X34857419Y-84857142D02*
X34857419Y-84190476D01*
X34857419Y-84190476D02*
X35857419Y-84619047D01*
X35500000Y-113500000D02*
X37086420Y-113500000D01*
X37086420Y-56500000D02*
X36000000Y-56500000D01*
X36500000Y-113500000D02*
X36500000Y-56500000D01*
X36500000Y-113500000D02*
X35913579Y-112373496D01*
X36500000Y-113500000D02*
X37086421Y-112373496D01*
X36500000Y-56500000D02*
X37086421Y-57626504D01*
X36500000Y-56500000D02*
X35913579Y-57626504D01*
X84333333Y-112857419D02*
X84523809Y-112857419D01*
X84523809Y-112857419D02*
X84619047Y-112809800D01*
X84619047Y-112809800D02*
X84666666Y-112762180D01*
X84666666Y-112762180D02*
X84761904Y-112619323D01*
X84761904Y-112619323D02*
X84809523Y-112428847D01*
X84809523Y-112428847D02*
X84809523Y-112047895D01*
X84809523Y-112047895D02*
X84761904Y-111952657D01*
X84761904Y-111952657D02*
X84714285Y-111905038D01*
X84714285Y-111905038D02*
X84619047Y-111857419D01*
X84619047Y-111857419D02*
X84428571Y-111857419D01*
X84428571Y-111857419D02*
X84333333Y-111905038D01*
X84333333Y-111905038D02*
X84285714Y-111952657D01*
X84285714Y-111952657D02*
X84238095Y-112047895D01*
X84238095Y-112047895D02*
X84238095Y-112285990D01*
X84238095Y-112285990D02*
X84285714Y-112381228D01*
X84285714Y-112381228D02*
X84333333Y-112428847D01*
X84333333Y-112428847D02*
X84428571Y-112476466D01*
X84428571Y-112476466D02*
X84619047Y-112476466D01*
X84619047Y-112476466D02*
X84714285Y-112428847D01*
X84714285Y-112428847D02*
X84761904Y-112381228D01*
X84761904Y-112381228D02*
X84809523Y-112285990D01*
X85142857Y-111857419D02*
X85809523Y-111857419D01*
X85809523Y-111857419D02*
X85380952Y-112857419D01*
X36500000Y-112500000D02*
X36500000Y-114086420D01*
X133500000Y-114086420D02*
X133500000Y-113000000D01*
X36500000Y-113500000D02*
X133500000Y-113500000D01*
X36500000Y-113500000D02*
X37626504Y-112913579D01*
X36500000Y-113500000D02*
X37626504Y-114086421D01*
X133500000Y-113500000D02*
X132373496Y-114086421D01*
X133500000Y-113500000D02*
X132373496Y-112913579D01*
X84333333Y-55857419D02*
X84523809Y-55857419D01*
X84523809Y-55857419D02*
X84619047Y-55809800D01*
X84619047Y-55809800D02*
X84666666Y-55762180D01*
X84666666Y-55762180D02*
X84761904Y-55619323D01*
X84761904Y-55619323D02*
X84809523Y-55428847D01*
X84809523Y-55428847D02*
X84809523Y-55047895D01*
X84809523Y-55047895D02*
X84761904Y-54952657D01*
X84761904Y-54952657D02*
X84714285Y-54905038D01*
X84714285Y-54905038D02*
X84619047Y-54857419D01*
X84619047Y-54857419D02*
X84428571Y-54857419D01*
X84428571Y-54857419D02*
X84333333Y-54905038D01*
X84333333Y-54905038D02*
X84285714Y-54952657D01*
X84285714Y-54952657D02*
X84238095Y-55047895D01*
X84238095Y-55047895D02*
X84238095Y-55285990D01*
X84238095Y-55285990D02*
X84285714Y-55381228D01*
X84285714Y-55381228D02*
X84333333Y-55428847D01*
X84333333Y-55428847D02*
X84428571Y-55476466D01*
X84428571Y-55476466D02*
X84619047Y-55476466D01*
X84619047Y-55476466D02*
X84714285Y-55428847D01*
X84714285Y-55428847D02*
X84761904Y-55381228D01*
X84761904Y-55381228D02*
X84809523Y-55285990D01*
X85142857Y-54857419D02*
X85809523Y-54857419D01*
X85809523Y-54857419D02*
X85380952Y-55857419D01*
X36500000Y-55500000D02*
X36500000Y-57086420D01*
X133500000Y-57086420D02*
X133500000Y-56000000D01*
X36500000Y-56500000D02*
X133500000Y-56500000D01*
X36500000Y-56500000D02*
X37626504Y-55913579D01*
X36500000Y-56500000D02*
X37626504Y-57086421D01*
X133500000Y-56500000D02*
X132373496Y-57086421D01*
X133500000Y-56500000D02*
X132373496Y-55913579D01*
X36857419Y-85809523D02*
X36857419Y-85142857D01*
X36857419Y-85142857D02*
X37857419Y-85571428D01*
X36857419Y-84857142D02*
X36857419Y-84238095D01*
X36857419Y-84238095D02*
X37238371Y-84571428D01*
X37238371Y-84571428D02*
X37238371Y-84428571D01*
X37238371Y-84428571D02*
X37285990Y-84333333D01*
X37285990Y-84333333D02*
X37333609Y-84285714D01*
X37333609Y-84285714D02*
X37428847Y-84238095D01*
X37428847Y-84238095D02*
X37666942Y-84238095D01*
X37666942Y-84238095D02*
X37762180Y-84285714D01*
X37762180Y-84285714D02*
X37809800Y-84333333D01*
X37809800Y-84333333D02*
X37857419Y-84428571D01*
X37857419Y-84428571D02*
X37857419Y-84714285D01*
X37857419Y-84714285D02*
X37809800Y-84809523D01*
X37809800Y-84809523D02*
X37762180Y-84857142D01*
X34000000Y-121500000D02*
X39086420Y-121500000D01*
X39086420Y-48500000D02*
X28500000Y-48500000D01*
X38500000Y-121500000D02*
X38500000Y-48500000D01*
X38500000Y-121500000D02*
X37913579Y-120373496D01*
X38500000Y-121500000D02*
X39086421Y-120373496D01*
X38500000Y-48500000D02*
X39086421Y-49626504D01*
X38500000Y-48500000D02*
X37913579Y-49626504D01*
X131857419Y-85238095D02*
X131857419Y-85714285D01*
X131857419Y-85714285D02*
X132333609Y-85761904D01*
X132333609Y-85761904D02*
X132285990Y-85714285D01*
X132285990Y-85714285D02*
X132238371Y-85619047D01*
X132238371Y-85619047D02*
X132238371Y-85380952D01*
X132238371Y-85380952D02*
X132285990Y-85285714D01*
X132285990Y-85285714D02*
X132333609Y-85238095D01*
X132333609Y-85238095D02*
X132428847Y-85190476D01*
X132428847Y-85190476D02*
X132666942Y-85190476D01*
X132666942Y-85190476D02*
X132762180Y-85238095D01*
X132762180Y-85238095D02*
X132809800Y-85285714D01*
X132809800Y-85285714D02*
X132857419Y-85380952D01*
X132857419Y-85380952D02*
X132857419Y-85619047D01*
X132857419Y-85619047D02*
X132809800Y-85714285D01*
X132809800Y-85714285D02*
X132762180Y-85761904D01*
X131857419Y-84857142D02*
X131857419Y-84190476D01*
X131857419Y-84190476D02*
X132857419Y-84619047D01*
X132500000Y-113500000D02*
X134086420Y-113500000D01*
X134086420Y-56500000D02*
X133000000Y-56500000D01*
X133500000Y-113500000D02*
X133500000Y-56500000D01*
X133500000Y-113500000D02*
X132913579Y-112373496D01*
X133500000Y-113500000D02*
X134086421Y-112373496D01*
X133500000Y-56500000D02*
X134086421Y-57626504D01*
X133500000Y-56500000D02*
X132913579Y-57626504D01*
D11*
X136534819Y-84595238D02*
X136534819Y-85166666D01*
X136534819Y-84880952D02*
X135534819Y-84880952D01*
X135534819Y-84880952D02*
X135677676Y-84976190D01*
X135677676Y-84976190D02*
X135772914Y-85071428D01*
X135772914Y-85071428D02*
X135820533Y-85166666D01*
X135630057Y-84214285D02*
X135582438Y-84166666D01*
X135582438Y-84166666D02*
X135534819Y-84071428D01*
X135534819Y-84071428D02*
X135534819Y-83833333D01*
X135534819Y-83833333D02*
X135582438Y-83738095D01*
X135582438Y-83738095D02*
X135630057Y-83690476D01*
X135630057Y-83690476D02*
X135725295Y-83642857D01*
X135725295Y-83642857D02*
X135820533Y-83642857D01*
X135820533Y-83642857D02*
X135963390Y-83690476D01*
X135963390Y-83690476D02*
X136534819Y-84261904D01*
X136534819Y-84261904D02*
X136534819Y-83642857D01*
X135534819Y-83357142D02*
X136534819Y-83023809D01*
X136534819Y-83023809D02*
X135534819Y-82690476D01*
X136534819Y-82357142D02*
X135534819Y-82357142D01*
X135534819Y-82357142D02*
X135534819Y-82119047D01*
X135534819Y-82119047D02*
X135582438Y-81976190D01*
X135582438Y-81976190D02*
X135677676Y-81880952D01*
X135677676Y-81880952D02*
X135772914Y-81833333D01*
X135772914Y-81833333D02*
X135963390Y-81785714D01*
X135963390Y-81785714D02*
X136106247Y-81785714D01*
X136106247Y-81785714D02*
X136296723Y-81833333D01*
X136296723Y-81833333D02*
X136391961Y-81880952D01*
X136391961Y-81880952D02*
X136487200Y-81976190D01*
X136487200Y-81976190D02*
X136534819Y-82119047D01*
X136534819Y-82119047D02*
X136534819Y-82357142D01*
X136439580Y-80785714D02*
X136487200Y-80833333D01*
X136487200Y-80833333D02*
X136534819Y-80976190D01*
X136534819Y-80976190D02*
X136534819Y-81071428D01*
X136534819Y-81071428D02*
X136487200Y-81214285D01*
X136487200Y-81214285D02*
X136391961Y-81309523D01*
X136391961Y-81309523D02*
X136296723Y-81357142D01*
X136296723Y-81357142D02*
X136106247Y-81404761D01*
X136106247Y-81404761D02*
X135963390Y-81404761D01*
X135963390Y-81404761D02*
X135772914Y-81357142D01*
X135772914Y-81357142D02*
X135677676Y-81309523D01*
X135677676Y-81309523D02*
X135582438Y-81214285D01*
X135582438Y-81214285D02*
X135534819Y-81071428D01*
X135534819Y-81071428D02*
X135534819Y-80976190D01*
X135534819Y-80976190D02*
X135582438Y-80833333D01*
X135582438Y-80833333D02*
X135630057Y-80785714D01*
X136534819Y-79833333D02*
X136534819Y-80404761D01*
X136534819Y-80119047D02*
X135534819Y-80119047D01*
X135534819Y-80119047D02*
X135677676Y-80214285D01*
X135677676Y-80214285D02*
X135772914Y-80309523D01*
X135772914Y-80309523D02*
X135820533Y-80404761D01*
X58110057Y-106825238D02*
X58062438Y-106920476D01*
X58062438Y-106920476D02*
X57967200Y-107015714D01*
X57967200Y-107015714D02*
X57824342Y-107158571D01*
X57824342Y-107158571D02*
X57776723Y-107253809D01*
X57776723Y-107253809D02*
X57776723Y-107349047D01*
X58014819Y-107301428D02*
X57967200Y-107396666D01*
X57967200Y-107396666D02*
X57871961Y-107491904D01*
X57871961Y-107491904D02*
X57681485Y-107539523D01*
X57681485Y-107539523D02*
X57348152Y-107539523D01*
X57348152Y-107539523D02*
X57157676Y-107491904D01*
X57157676Y-107491904D02*
X57062438Y-107396666D01*
X57062438Y-107396666D02*
X57014819Y-107301428D01*
X57014819Y-107301428D02*
X57014819Y-107110952D01*
X57014819Y-107110952D02*
X57062438Y-107015714D01*
X57062438Y-107015714D02*
X57157676Y-106920476D01*
X57157676Y-106920476D02*
X57348152Y-106872857D01*
X57348152Y-106872857D02*
X57681485Y-106872857D01*
X57681485Y-106872857D02*
X57871961Y-106920476D01*
X57871961Y-106920476D02*
X57967200Y-107015714D01*
X57967200Y-107015714D02*
X58014819Y-107110952D01*
X58014819Y-107110952D02*
X58014819Y-107301428D01*
X58014819Y-105920476D02*
X58014819Y-106491904D01*
X58014819Y-106206190D02*
X57014819Y-106206190D01*
X57014819Y-106206190D02*
X57157676Y-106301428D01*
X57157676Y-106301428D02*
X57252914Y-106396666D01*
X57252914Y-106396666D02*
X57300533Y-106491904D01*
X87784104Y-68073339D02*
X87784104Y-67597149D01*
X88069819Y-68168577D02*
X87069819Y-67835244D01*
X87069819Y-67835244D02*
X88069819Y-67501911D01*
X88069819Y-66644768D02*
X88069819Y-67216196D01*
X88069819Y-66930482D02*
X87069819Y-66930482D01*
X87069819Y-66930482D02*
X87212676Y-67025720D01*
X87212676Y-67025720D02*
X87307914Y-67120958D01*
X87307914Y-67120958D02*
X87355533Y-67216196D01*
X82382380Y-50994819D02*
X82049047Y-50518628D01*
X81810952Y-50994819D02*
X81810952Y-49994819D01*
X81810952Y-49994819D02*
X82191904Y-49994819D01*
X82191904Y-49994819D02*
X82287142Y-50042438D01*
X82287142Y-50042438D02*
X82334761Y-50090057D01*
X82334761Y-50090057D02*
X82382380Y-50185295D01*
X82382380Y-50185295D02*
X82382380Y-50328152D01*
X82382380Y-50328152D02*
X82334761Y-50423390D01*
X82334761Y-50423390D02*
X82287142Y-50471009D01*
X82287142Y-50471009D02*
X82191904Y-50518628D01*
X82191904Y-50518628D02*
X81810952Y-50518628D01*
X83191904Y-50947200D02*
X83096666Y-50994819D01*
X83096666Y-50994819D02*
X82906190Y-50994819D01*
X82906190Y-50994819D02*
X82810952Y-50947200D01*
X82810952Y-50947200D02*
X82763333Y-50851961D01*
X82763333Y-50851961D02*
X82763333Y-50471009D01*
X82763333Y-50471009D02*
X82810952Y-50375771D01*
X82810952Y-50375771D02*
X82906190Y-50328152D01*
X82906190Y-50328152D02*
X83096666Y-50328152D01*
X83096666Y-50328152D02*
X83191904Y-50375771D01*
X83191904Y-50375771D02*
X83239523Y-50471009D01*
X83239523Y-50471009D02*
X83239523Y-50566247D01*
X83239523Y-50566247D02*
X82763333Y-50661485D01*
X84096666Y-50994819D02*
X84096666Y-49994819D01*
X84096666Y-50947200D02*
X84001428Y-50994819D01*
X84001428Y-50994819D02*
X83810952Y-50994819D01*
X83810952Y-50994819D02*
X83715714Y-50947200D01*
X83715714Y-50947200D02*
X83668095Y-50899580D01*
X83668095Y-50899580D02*
X83620476Y-50804342D01*
X83620476Y-50804342D02*
X83620476Y-50518628D01*
X83620476Y-50518628D02*
X83668095Y-50423390D01*
X83668095Y-50423390D02*
X83715714Y-50375771D01*
X83715714Y-50375771D02*
X83810952Y-50328152D01*
X83810952Y-50328152D02*
X84001428Y-50328152D01*
X84001428Y-50328152D02*
X84096666Y-50375771D01*
X85096666Y-50994819D02*
X84525238Y-50994819D01*
X84810952Y-50994819D02*
X84810952Y-49994819D01*
X84810952Y-49994819D02*
X84715714Y-50137676D01*
X84715714Y-50137676D02*
X84620476Y-50232914D01*
X84620476Y-50232914D02*
X84525238Y-50280533D01*
X104775714Y-82599104D02*
X105251904Y-82599104D01*
X104680476Y-82884819D02*
X105013809Y-81884819D01*
X105013809Y-81884819D02*
X105347142Y-82884819D01*
X105585238Y-82218152D02*
X106109047Y-82218152D01*
X106109047Y-82218152D02*
X105585238Y-82884819D01*
X105585238Y-82884819D02*
X106109047Y-82884819D01*
X106490000Y-82884819D02*
X106490000Y-82218152D01*
X106490000Y-81884819D02*
X106442381Y-81932438D01*
X106442381Y-81932438D02*
X106490000Y-81980057D01*
X106490000Y-81980057D02*
X106537619Y-81932438D01*
X106537619Y-81932438D02*
X106490000Y-81884819D01*
X106490000Y-81884819D02*
X106490000Y-81980057D01*
X106966190Y-82884819D02*
X106966190Y-82218152D01*
X106966190Y-82313390D02*
X107013809Y-82265771D01*
X107013809Y-82265771D02*
X107109047Y-82218152D01*
X107109047Y-82218152D02*
X107251904Y-82218152D01*
X107251904Y-82218152D02*
X107347142Y-82265771D01*
X107347142Y-82265771D02*
X107394761Y-82361009D01*
X107394761Y-82361009D02*
X107394761Y-82884819D01*
X107394761Y-82361009D02*
X107442380Y-82265771D01*
X107442380Y-82265771D02*
X107537618Y-82218152D01*
X107537618Y-82218152D02*
X107680475Y-82218152D01*
X107680475Y-82218152D02*
X107775714Y-82265771D01*
X107775714Y-82265771D02*
X107823333Y-82361009D01*
X107823333Y-82361009D02*
X107823333Y-82884819D01*
X108728094Y-82218152D02*
X108728094Y-82884819D01*
X108299523Y-82218152D02*
X108299523Y-82741961D01*
X108299523Y-82741961D02*
X108347142Y-82837200D01*
X108347142Y-82837200D02*
X108442380Y-82884819D01*
X108442380Y-82884819D02*
X108585237Y-82884819D01*
X108585237Y-82884819D02*
X108680475Y-82837200D01*
X108680475Y-82837200D02*
X108728094Y-82789580D01*
X109061428Y-82218152D02*
X109442380Y-82218152D01*
X109204285Y-81884819D02*
X109204285Y-82741961D01*
X109204285Y-82741961D02*
X109251904Y-82837200D01*
X109251904Y-82837200D02*
X109347142Y-82884819D01*
X109347142Y-82884819D02*
X109442380Y-82884819D01*
X109775714Y-82884819D02*
X109775714Y-81884819D01*
X110204285Y-82884819D02*
X110204285Y-82361009D01*
X110204285Y-82361009D02*
X110156666Y-82265771D01*
X110156666Y-82265771D02*
X110061428Y-82218152D01*
X110061428Y-82218152D02*
X109918571Y-82218152D01*
X109918571Y-82218152D02*
X109823333Y-82265771D01*
X109823333Y-82265771D02*
X109775714Y-82313390D01*
X111204285Y-82884819D02*
X110632857Y-82884819D01*
X110918571Y-82884819D02*
X110918571Y-81884819D01*
X110918571Y-81884819D02*
X110823333Y-82027676D01*
X110823333Y-82027676D02*
X110728095Y-82122914D01*
X110728095Y-82122914D02*
X110632857Y-82170533D01*
X68222380Y-50471009D02*
X68365237Y-50518628D01*
X68365237Y-50518628D02*
X68412856Y-50566247D01*
X68412856Y-50566247D02*
X68460475Y-50661485D01*
X68460475Y-50661485D02*
X68460475Y-50804342D01*
X68460475Y-50804342D02*
X68412856Y-50899580D01*
X68412856Y-50899580D02*
X68365237Y-50947200D01*
X68365237Y-50947200D02*
X68269999Y-50994819D01*
X68269999Y-50994819D02*
X67889047Y-50994819D01*
X67889047Y-50994819D02*
X67889047Y-49994819D01*
X67889047Y-49994819D02*
X68222380Y-49994819D01*
X68222380Y-49994819D02*
X68317618Y-50042438D01*
X68317618Y-50042438D02*
X68365237Y-50090057D01*
X68365237Y-50090057D02*
X68412856Y-50185295D01*
X68412856Y-50185295D02*
X68412856Y-50280533D01*
X68412856Y-50280533D02*
X68365237Y-50375771D01*
X68365237Y-50375771D02*
X68317618Y-50423390D01*
X68317618Y-50423390D02*
X68222380Y-50471009D01*
X68222380Y-50471009D02*
X67889047Y-50471009D01*
X69031904Y-50994819D02*
X68936666Y-50947200D01*
X68936666Y-50947200D02*
X68889047Y-50851961D01*
X68889047Y-50851961D02*
X68889047Y-49994819D01*
X69841428Y-50328152D02*
X69841428Y-50994819D01*
X69412857Y-50328152D02*
X69412857Y-50851961D01*
X69412857Y-50851961D02*
X69460476Y-50947200D01*
X69460476Y-50947200D02*
X69555714Y-50994819D01*
X69555714Y-50994819D02*
X69698571Y-50994819D01*
X69698571Y-50994819D02*
X69793809Y-50947200D01*
X69793809Y-50947200D02*
X69841428Y-50899580D01*
X70698571Y-50947200D02*
X70603333Y-50994819D01*
X70603333Y-50994819D02*
X70412857Y-50994819D01*
X70412857Y-50994819D02*
X70317619Y-50947200D01*
X70317619Y-50947200D02*
X70270000Y-50851961D01*
X70270000Y-50851961D02*
X70270000Y-50471009D01*
X70270000Y-50471009D02*
X70317619Y-50375771D01*
X70317619Y-50375771D02*
X70412857Y-50328152D01*
X70412857Y-50328152D02*
X70603333Y-50328152D01*
X70603333Y-50328152D02*
X70698571Y-50375771D01*
X70698571Y-50375771D02*
X70746190Y-50471009D01*
X70746190Y-50471009D02*
X70746190Y-50566247D01*
X70746190Y-50566247D02*
X70270000Y-50661485D01*
X71698571Y-50994819D02*
X71127143Y-50994819D01*
X71412857Y-50994819D02*
X71412857Y-49994819D01*
X71412857Y-49994819D02*
X71317619Y-50137676D01*
X71317619Y-50137676D02*
X71222381Y-50232914D01*
X71222381Y-50232914D02*
X71127143Y-50280533D01*
X127109580Y-63194067D02*
X127157200Y-63241686D01*
X127157200Y-63241686D02*
X127204819Y-63384543D01*
X127204819Y-63384543D02*
X127204819Y-63479781D01*
X127204819Y-63479781D02*
X127157200Y-63622638D01*
X127157200Y-63622638D02*
X127061961Y-63717876D01*
X127061961Y-63717876D02*
X126966723Y-63765495D01*
X126966723Y-63765495D02*
X126776247Y-63813114D01*
X126776247Y-63813114D02*
X126633390Y-63813114D01*
X126633390Y-63813114D02*
X126442914Y-63765495D01*
X126442914Y-63765495D02*
X126347676Y-63717876D01*
X126347676Y-63717876D02*
X126252438Y-63622638D01*
X126252438Y-63622638D02*
X126204819Y-63479781D01*
X126204819Y-63479781D02*
X126204819Y-63384543D01*
X126204819Y-63384543D02*
X126252438Y-63241686D01*
X126252438Y-63241686D02*
X126300057Y-63194067D01*
X126300057Y-62813114D02*
X126252438Y-62765495D01*
X126252438Y-62765495D02*
X126204819Y-62670257D01*
X126204819Y-62670257D02*
X126204819Y-62432162D01*
X126204819Y-62432162D02*
X126252438Y-62336924D01*
X126252438Y-62336924D02*
X126300057Y-62289305D01*
X126300057Y-62289305D02*
X126395295Y-62241686D01*
X126395295Y-62241686D02*
X126490533Y-62241686D01*
X126490533Y-62241686D02*
X126633390Y-62289305D01*
X126633390Y-62289305D02*
X127204819Y-62860733D01*
X127204819Y-62860733D02*
X127204819Y-62241686D01*
X43074819Y-115793333D02*
X43789104Y-115793333D01*
X43789104Y-115793333D02*
X43931961Y-115840952D01*
X43931961Y-115840952D02*
X44027200Y-115936190D01*
X44027200Y-115936190D02*
X44074819Y-116079047D01*
X44074819Y-116079047D02*
X44074819Y-116174285D01*
X43170057Y-115364761D02*
X43122438Y-115317142D01*
X43122438Y-115317142D02*
X43074819Y-115221904D01*
X43074819Y-115221904D02*
X43074819Y-114983809D01*
X43074819Y-114983809D02*
X43122438Y-114888571D01*
X43122438Y-114888571D02*
X43170057Y-114840952D01*
X43170057Y-114840952D02*
X43265295Y-114793333D01*
X43265295Y-114793333D02*
X43360533Y-114793333D01*
X43360533Y-114793333D02*
X43503390Y-114840952D01*
X43503390Y-114840952D02*
X44074819Y-115412380D01*
X44074819Y-115412380D02*
X44074819Y-114793333D01*
X74661666Y-50042438D02*
X74566428Y-49994819D01*
X74566428Y-49994819D02*
X74423571Y-49994819D01*
X74423571Y-49994819D02*
X74280714Y-50042438D01*
X74280714Y-50042438D02*
X74185476Y-50137676D01*
X74185476Y-50137676D02*
X74137857Y-50232914D01*
X74137857Y-50232914D02*
X74090238Y-50423390D01*
X74090238Y-50423390D02*
X74090238Y-50566247D01*
X74090238Y-50566247D02*
X74137857Y-50756723D01*
X74137857Y-50756723D02*
X74185476Y-50851961D01*
X74185476Y-50851961D02*
X74280714Y-50947200D01*
X74280714Y-50947200D02*
X74423571Y-50994819D01*
X74423571Y-50994819D02*
X74518809Y-50994819D01*
X74518809Y-50994819D02*
X74661666Y-50947200D01*
X74661666Y-50947200D02*
X74709285Y-50899580D01*
X74709285Y-50899580D02*
X74709285Y-50566247D01*
X74709285Y-50566247D02*
X74518809Y-50566247D01*
X75137857Y-50994819D02*
X75137857Y-50328152D01*
X75137857Y-50518628D02*
X75185476Y-50423390D01*
X75185476Y-50423390D02*
X75233095Y-50375771D01*
X75233095Y-50375771D02*
X75328333Y-50328152D01*
X75328333Y-50328152D02*
X75423571Y-50328152D01*
X76137857Y-50947200D02*
X76042619Y-50994819D01*
X76042619Y-50994819D02*
X75852143Y-50994819D01*
X75852143Y-50994819D02*
X75756905Y-50947200D01*
X75756905Y-50947200D02*
X75709286Y-50851961D01*
X75709286Y-50851961D02*
X75709286Y-50471009D01*
X75709286Y-50471009D02*
X75756905Y-50375771D01*
X75756905Y-50375771D02*
X75852143Y-50328152D01*
X75852143Y-50328152D02*
X76042619Y-50328152D01*
X76042619Y-50328152D02*
X76137857Y-50375771D01*
X76137857Y-50375771D02*
X76185476Y-50471009D01*
X76185476Y-50471009D02*
X76185476Y-50566247D01*
X76185476Y-50566247D02*
X75709286Y-50661485D01*
X76995000Y-50947200D02*
X76899762Y-50994819D01*
X76899762Y-50994819D02*
X76709286Y-50994819D01*
X76709286Y-50994819D02*
X76614048Y-50947200D01*
X76614048Y-50947200D02*
X76566429Y-50851961D01*
X76566429Y-50851961D02*
X76566429Y-50471009D01*
X76566429Y-50471009D02*
X76614048Y-50375771D01*
X76614048Y-50375771D02*
X76709286Y-50328152D01*
X76709286Y-50328152D02*
X76899762Y-50328152D01*
X76899762Y-50328152D02*
X76995000Y-50375771D01*
X76995000Y-50375771D02*
X77042619Y-50471009D01*
X77042619Y-50471009D02*
X77042619Y-50566247D01*
X77042619Y-50566247D02*
X76566429Y-50661485D01*
X77471191Y-50328152D02*
X77471191Y-50994819D01*
X77471191Y-50423390D02*
X77518810Y-50375771D01*
X77518810Y-50375771D02*
X77614048Y-50328152D01*
X77614048Y-50328152D02*
X77756905Y-50328152D01*
X77756905Y-50328152D02*
X77852143Y-50375771D01*
X77852143Y-50375771D02*
X77899762Y-50471009D01*
X77899762Y-50471009D02*
X77899762Y-50994819D01*
X78899762Y-50994819D02*
X78328334Y-50994819D01*
X78614048Y-50994819D02*
X78614048Y-49994819D01*
X78614048Y-49994819D02*
X78518810Y-50137676D01*
X78518810Y-50137676D02*
X78423572Y-50232914D01*
X78423572Y-50232914D02*
X78328334Y-50280533D01*
X61083333Y-103069580D02*
X61035714Y-103117200D01*
X61035714Y-103117200D02*
X60892857Y-103164819D01*
X60892857Y-103164819D02*
X60797619Y-103164819D01*
X60797619Y-103164819D02*
X60654762Y-103117200D01*
X60654762Y-103117200D02*
X60559524Y-103021961D01*
X60559524Y-103021961D02*
X60511905Y-102926723D01*
X60511905Y-102926723D02*
X60464286Y-102736247D01*
X60464286Y-102736247D02*
X60464286Y-102593390D01*
X60464286Y-102593390D02*
X60511905Y-102402914D01*
X60511905Y-102402914D02*
X60559524Y-102307676D01*
X60559524Y-102307676D02*
X60654762Y-102212438D01*
X60654762Y-102212438D02*
X60797619Y-102164819D01*
X60797619Y-102164819D02*
X60892857Y-102164819D01*
X60892857Y-102164819D02*
X61035714Y-102212438D01*
X61035714Y-102212438D02*
X61083333Y-102260057D01*
X62035714Y-103164819D02*
X61464286Y-103164819D01*
X61750000Y-103164819D02*
X61750000Y-102164819D01*
X61750000Y-102164819D02*
X61654762Y-102307676D01*
X61654762Y-102307676D02*
X61559524Y-102402914D01*
X61559524Y-102402914D02*
X61464286Y-102450533D01*
X121190476Y-93764819D02*
X121190476Y-92764819D01*
X121190476Y-92764819D02*
X121523809Y-93479104D01*
X121523809Y-93479104D02*
X121857142Y-92764819D01*
X121857142Y-92764819D02*
X121857142Y-93764819D01*
X122857142Y-93764819D02*
X122285714Y-93764819D01*
X122571428Y-93764819D02*
X122571428Y-92764819D01*
X122571428Y-92764819D02*
X122476190Y-92907676D01*
X122476190Y-92907676D02*
X122380952Y-93002914D01*
X122380952Y-93002914D02*
X122285714Y-93050533D01*
X120570476Y-67074819D02*
X120570476Y-66074819D01*
X120570476Y-66074819D02*
X120903809Y-66789104D01*
X120903809Y-66789104D02*
X121237142Y-66074819D01*
X121237142Y-66074819D02*
X121237142Y-67074819D01*
X121665714Y-66170057D02*
X121713333Y-66122438D01*
X121713333Y-66122438D02*
X121808571Y-66074819D01*
X121808571Y-66074819D02*
X122046666Y-66074819D01*
X122046666Y-66074819D02*
X122141904Y-66122438D01*
X122141904Y-66122438D02*
X122189523Y-66170057D01*
X122189523Y-66170057D02*
X122237142Y-66265295D01*
X122237142Y-66265295D02*
X122237142Y-66360533D01*
X122237142Y-66360533D02*
X122189523Y-66503390D01*
X122189523Y-66503390D02*
X121618095Y-67074819D01*
X121618095Y-67074819D02*
X122237142Y-67074819D01*
X125609580Y-88694067D02*
X125657200Y-88741686D01*
X125657200Y-88741686D02*
X125704819Y-88884543D01*
X125704819Y-88884543D02*
X125704819Y-88979781D01*
X125704819Y-88979781D02*
X125657200Y-89122638D01*
X125657200Y-89122638D02*
X125561961Y-89217876D01*
X125561961Y-89217876D02*
X125466723Y-89265495D01*
X125466723Y-89265495D02*
X125276247Y-89313114D01*
X125276247Y-89313114D02*
X125133390Y-89313114D01*
X125133390Y-89313114D02*
X124942914Y-89265495D01*
X124942914Y-89265495D02*
X124847676Y-89217876D01*
X124847676Y-89217876D02*
X124752438Y-89122638D01*
X124752438Y-89122638D02*
X124704819Y-88979781D01*
X124704819Y-88979781D02*
X124704819Y-88884543D01*
X124704819Y-88884543D02*
X124752438Y-88741686D01*
X124752438Y-88741686D02*
X124800057Y-88694067D01*
X124704819Y-88360733D02*
X124704819Y-87741686D01*
X124704819Y-87741686D02*
X125085771Y-88075019D01*
X125085771Y-88075019D02*
X125085771Y-87932162D01*
X125085771Y-87932162D02*
X125133390Y-87836924D01*
X125133390Y-87836924D02*
X125181009Y-87789305D01*
X125181009Y-87789305D02*
X125276247Y-87741686D01*
X125276247Y-87741686D02*
X125514342Y-87741686D01*
X125514342Y-87741686D02*
X125609580Y-87789305D01*
X125609580Y-87789305D02*
X125657200Y-87836924D01*
X125657200Y-87836924D02*
X125704819Y-87932162D01*
X125704819Y-87932162D02*
X125704819Y-88217876D01*
X125704819Y-88217876D02*
X125657200Y-88313114D01*
X125657200Y-88313114D02*
X125609580Y-88360733D01*
X104830952Y-108099104D02*
X105307142Y-108099104D01*
X104735714Y-108384819D02*
X105069047Y-107384819D01*
X105069047Y-107384819D02*
X105402380Y-108384819D01*
X105878571Y-108384819D02*
X105783333Y-108337200D01*
X105783333Y-108337200D02*
X105735714Y-108241961D01*
X105735714Y-108241961D02*
X105735714Y-107384819D01*
X106116667Y-107718152D02*
X106497619Y-107718152D01*
X106259524Y-107384819D02*
X106259524Y-108241961D01*
X106259524Y-108241961D02*
X106307143Y-108337200D01*
X106307143Y-108337200D02*
X106402381Y-108384819D01*
X106402381Y-108384819D02*
X106497619Y-108384819D01*
X106830953Y-108384819D02*
X106830953Y-107718152D01*
X106830953Y-107384819D02*
X106783334Y-107432438D01*
X106783334Y-107432438D02*
X106830953Y-107480057D01*
X106830953Y-107480057D02*
X106878572Y-107432438D01*
X106878572Y-107432438D02*
X106830953Y-107384819D01*
X106830953Y-107384819D02*
X106830953Y-107480057D01*
X107164286Y-107718152D02*
X107545238Y-107718152D01*
X107307143Y-107384819D02*
X107307143Y-108241961D01*
X107307143Y-108241961D02*
X107354762Y-108337200D01*
X107354762Y-108337200D02*
X107450000Y-108384819D01*
X107450000Y-108384819D02*
X107545238Y-108384819D01*
X108307143Y-107718152D02*
X108307143Y-108384819D01*
X107878572Y-107718152D02*
X107878572Y-108241961D01*
X107878572Y-108241961D02*
X107926191Y-108337200D01*
X107926191Y-108337200D02*
X108021429Y-108384819D01*
X108021429Y-108384819D02*
X108164286Y-108384819D01*
X108164286Y-108384819D02*
X108259524Y-108337200D01*
X108259524Y-108337200D02*
X108307143Y-108289580D01*
X109211905Y-108384819D02*
X109211905Y-107384819D01*
X109211905Y-108337200D02*
X109116667Y-108384819D01*
X109116667Y-108384819D02*
X108926191Y-108384819D01*
X108926191Y-108384819D02*
X108830953Y-108337200D01*
X108830953Y-108337200D02*
X108783334Y-108289580D01*
X108783334Y-108289580D02*
X108735715Y-108194342D01*
X108735715Y-108194342D02*
X108735715Y-107908628D01*
X108735715Y-107908628D02*
X108783334Y-107813390D01*
X108783334Y-107813390D02*
X108830953Y-107765771D01*
X108830953Y-107765771D02*
X108926191Y-107718152D01*
X108926191Y-107718152D02*
X109116667Y-107718152D01*
X109116667Y-107718152D02*
X109211905Y-107765771D01*
X110069048Y-108337200D02*
X109973810Y-108384819D01*
X109973810Y-108384819D02*
X109783334Y-108384819D01*
X109783334Y-108384819D02*
X109688096Y-108337200D01*
X109688096Y-108337200D02*
X109640477Y-108241961D01*
X109640477Y-108241961D02*
X109640477Y-107861009D01*
X109640477Y-107861009D02*
X109688096Y-107765771D01*
X109688096Y-107765771D02*
X109783334Y-107718152D01*
X109783334Y-107718152D02*
X109973810Y-107718152D01*
X109973810Y-107718152D02*
X110069048Y-107765771D01*
X110069048Y-107765771D02*
X110116667Y-107861009D01*
X110116667Y-107861009D02*
X110116667Y-107956247D01*
X110116667Y-107956247D02*
X109640477Y-108051485D01*
X111069048Y-108384819D02*
X110497620Y-108384819D01*
X110783334Y-108384819D02*
X110783334Y-107384819D01*
X110783334Y-107384819D02*
X110688096Y-107527676D01*
X110688096Y-107527676D02*
X110592858Y-107622914D01*
X110592858Y-107622914D02*
X110497620Y-107670533D01*
X45534819Y-106936666D02*
X45058628Y-107269999D01*
X45534819Y-107508094D02*
X44534819Y-107508094D01*
X44534819Y-107508094D02*
X44534819Y-107127142D01*
X44534819Y-107127142D02*
X44582438Y-107031904D01*
X44582438Y-107031904D02*
X44630057Y-106984285D01*
X44630057Y-106984285D02*
X44725295Y-106936666D01*
X44725295Y-106936666D02*
X44868152Y-106936666D01*
X44868152Y-106936666D02*
X44963390Y-106984285D01*
X44963390Y-106984285D02*
X45011009Y-107031904D01*
X45011009Y-107031904D02*
X45058628Y-107127142D01*
X45058628Y-107127142D02*
X45058628Y-107508094D01*
X45534819Y-105984285D02*
X45534819Y-106555713D01*
X45534819Y-106269999D02*
X44534819Y-106269999D01*
X44534819Y-106269999D02*
X44677676Y-106365237D01*
X44677676Y-106365237D02*
X44772914Y-106460475D01*
X44772914Y-106460475D02*
X44820533Y-106555713D01*
D12*
%TO.C,12VDC1*%
X127190000Y-77420000D02*
X127190000Y-87580000D01*
X127190000Y-87580000D02*
X134810000Y-87580000D01*
X128460000Y-87580000D02*
X128460000Y-77420000D01*
X134810000Y-77420000D02*
X127190000Y-77420000D01*
X134810000Y-87580000D02*
X134810000Y-77420000D01*
%TO.C,Q1*%
X52150000Y-104930000D02*
X52150000Y-108530000D01*
X52161522Y-104891522D02*
G75*
G02*
X56600001Y-106730000I1838478J-1838478D01*
G01*
X56600000Y-106730000D02*
G75*
G02*
X52161522Y-108568478I-2600000J0D01*
G01*
%TO.C,A1*%
X35940000Y-76000000D02*
X36760000Y-76000000D01*
X35940000Y-84220000D02*
X35940000Y-76000000D01*
X35940000Y-84220000D02*
X36760000Y-84220000D01*
X36760000Y-76000000D02*
X36760000Y-76210000D01*
X36760000Y-76210000D02*
X38156000Y-76210000D01*
X36760000Y-84010000D02*
X38156000Y-84010000D01*
X36760000Y-84220000D02*
X36760000Y-84010000D01*
X37240000Y-70110000D02*
X37240000Y-72600000D01*
X37240000Y-72600000D02*
X38153520Y-72600000D01*
X37240000Y-73947939D02*
X37240000Y-72600000D01*
X37240000Y-75875000D02*
X37240000Y-74872061D01*
X37240000Y-84345000D02*
X37240000Y-75875000D01*
X37240000Y-85347939D02*
X37240000Y-84345000D01*
X37240000Y-87620000D02*
X37240000Y-86272060D01*
X37240000Y-87620000D02*
X38153520Y-87620000D01*
X37240000Y-90110000D02*
X37240000Y-87620000D01*
X37303000Y-90380000D02*
X88397000Y-90380000D01*
X37850000Y-69500000D02*
X87850000Y-69500000D01*
X37850000Y-90720000D02*
X87850000Y-90720000D01*
X39520000Y-91040000D02*
X37920000Y-91040000D01*
X40544000Y-76210000D02*
X41760000Y-76210000D01*
X40544000Y-84010000D02*
X41760000Y-84010000D01*
X40546480Y-72600000D02*
X85153520Y-72600000D01*
X40546480Y-87620000D02*
X85153520Y-87620000D01*
X41760000Y-76210000D02*
X41760000Y-84010000D01*
X87546480Y-72600000D02*
X88460000Y-72600000D01*
X87546480Y-87620000D02*
X88460000Y-87620000D01*
X88397000Y-69840000D02*
X37303000Y-69840000D01*
X88460000Y-73947939D02*
X88460000Y-70110000D01*
X88460000Y-74872061D02*
X88460000Y-76510000D01*
X88460000Y-76510000D02*
X88460000Y-83710000D01*
X88460000Y-83710000D02*
X88460000Y-85347939D01*
X88460000Y-90110000D02*
X88460000Y-86272061D01*
X37240000Y-70110000D02*
G75*
G02*
X37850000Y-69500000I610000J0D01*
G01*
X37850000Y-90720000D02*
G75*
G02*
X37240000Y-90110000I0J610000D01*
G01*
X87850000Y-69500000D02*
G75*
G02*
X88460000Y-70110000I0J-610000D01*
G01*
X88460000Y-90110000D02*
G75*
G02*
X87850000Y-90720000I-609901J-99D01*
G01*
%TO.C,Red1*%
X80870000Y-52955000D02*
X80870000Y-56045000D01*
X80870000Y-52955170D02*
G75*
G02*
X86420000Y-54500000I2560000J-1544830D01*
G01*
X86420000Y-54500000D02*
G75*
G02*
X80870000Y-56044830I-2990000J0D01*
G01*
X85930000Y-54500000D02*
G75*
G02*
X80930000Y-54500000I-2500000J0D01*
G01*
X80930000Y-54500000D02*
G75*
G02*
X85930000Y-54500000I2500000J0D01*
G01*
%TO.C,Azimuth1*%
X100240000Y-60710000D02*
X100240000Y-81290000D01*
X100240000Y-81290000D02*
X113070000Y-81290000D01*
X102910000Y-81290000D02*
X102910000Y-60710000D01*
X113070000Y-78620000D02*
X113070000Y-60710000D01*
X113070000Y-78620000D02*
X115740000Y-78620000D01*
X113070000Y-81290000D02*
X113070000Y-78620000D01*
X114340000Y-81290000D02*
X115740000Y-81290000D01*
X115740000Y-60710000D02*
X100240000Y-60710000D01*
X115740000Y-78620000D02*
X115740000Y-60710000D01*
X115740000Y-81290000D02*
X115740000Y-79890000D01*
%TO.C,Blue1*%
X67210000Y-52955000D02*
X67210000Y-56045000D01*
X67210000Y-52955170D02*
G75*
G02*
X72760000Y-54500000I2560000J-1544830D01*
G01*
X72760000Y-54500000D02*
G75*
G02*
X67210000Y-56044830I-2990000J0D01*
G01*
X72270000Y-54500000D02*
G75*
G02*
X67270000Y-54500000I-2500000J0D01*
G01*
X67270000Y-54500000D02*
G75*
G02*
X72270000Y-54500000I2500000J0D01*
G01*
%TO.C,C2*%
X122660000Y-63027401D02*
X121420000Y-63027401D01*
X122660000Y-63067401D02*
X121420000Y-63067401D01*
X122660000Y-63107401D02*
X121422000Y-63107401D01*
X122660000Y-63147401D02*
X121423000Y-63147401D01*
X122660000Y-63187401D02*
X121426000Y-63187401D01*
X122660000Y-63227401D02*
X121429000Y-63227401D01*
X122660000Y-63267401D02*
X121434000Y-63267401D01*
X122660000Y-63307401D02*
X121439000Y-63307401D01*
X122660000Y-63347401D02*
X121444000Y-63347401D01*
X122660000Y-63387401D02*
X121451000Y-63387401D01*
X122660000Y-63427401D02*
X121458000Y-63427401D01*
X122660000Y-63467401D02*
X121466000Y-63467401D01*
X122660000Y-63507401D02*
X121475000Y-63507401D01*
X122660000Y-63547401D02*
X121485000Y-63547401D01*
X122660000Y-63587401D02*
X121495000Y-63587401D01*
X122660000Y-63627401D02*
X121507000Y-63627401D01*
X122660000Y-63667401D02*
X121519000Y-63667401D01*
X122660000Y-63707401D02*
X121532000Y-63707401D01*
X122660000Y-63747401D02*
X121546000Y-63747401D01*
X122660000Y-63787401D02*
X121561000Y-63787401D01*
X122660000Y-63827401D02*
X121577000Y-63827401D01*
X122660000Y-63867401D02*
X121594000Y-63867401D01*
X122660000Y-63907401D02*
X121611000Y-63907401D01*
X122660000Y-63947401D02*
X121630000Y-63947401D01*
X122660000Y-63987401D02*
X121650000Y-63987401D01*
X122660000Y-64027401D02*
X121671000Y-64027401D01*
X122660000Y-64067401D02*
X121693000Y-64067401D01*
X122660000Y-64107401D02*
X121716000Y-64107401D01*
X122660000Y-64147401D02*
X121740000Y-64147401D01*
X122660000Y-64187401D02*
X121766000Y-64187401D01*
X122660000Y-64227401D02*
X121792000Y-64227401D01*
X122660000Y-64267401D02*
X121820000Y-64267401D01*
X122660000Y-64307401D02*
X121850000Y-64307401D01*
X122660000Y-64347401D02*
X121881000Y-64347401D01*
X122660000Y-64387401D02*
X121914000Y-64387401D01*
X122660000Y-64427401D02*
X121948000Y-64427401D01*
X122660000Y-64467401D02*
X121984000Y-64467401D01*
X122660000Y-64507401D02*
X122022000Y-64507401D01*
X122660000Y-64547401D02*
X122062000Y-64547401D01*
X122660000Y-64587401D02*
X122104000Y-64587401D01*
X123870000Y-65107401D02*
X123130000Y-65107401D01*
X124037000Y-65067401D02*
X122963000Y-65067401D01*
X124163000Y-65027401D02*
X122837000Y-65027401D01*
X124268000Y-64987401D02*
X122732000Y-64987401D01*
X124359000Y-64947401D02*
X122641000Y-64947401D01*
X124440000Y-64907401D02*
X122560000Y-64907401D01*
X124513000Y-64867401D02*
X122487000Y-64867401D01*
X124580000Y-64827401D02*
X122420000Y-64827401D01*
X124642000Y-64787401D02*
X122358000Y-64787401D01*
X124695000Y-60757600D02*
X124695000Y-61157600D01*
X124699000Y-64747401D02*
X122301000Y-64747401D01*
X124753000Y-64707401D02*
X122247000Y-64707401D01*
X124803000Y-64667401D02*
X122197000Y-64667401D01*
X124851000Y-64627401D02*
X122149000Y-64627401D01*
X124895000Y-60957600D02*
X124495000Y-60957600D01*
X124896000Y-64587401D02*
X124340000Y-64587401D01*
X124938000Y-64547401D02*
X124340000Y-64547401D01*
X124978000Y-64507401D02*
X124340000Y-64507401D01*
X125016000Y-64467401D02*
X124340000Y-64467401D01*
X125052000Y-64427401D02*
X124340000Y-64427401D01*
X125086000Y-64387401D02*
X124340000Y-64387401D01*
X125119000Y-64347401D02*
X124340000Y-64347401D01*
X125150000Y-64307401D02*
X124340000Y-64307401D01*
X125180000Y-64267401D02*
X124340000Y-64267401D01*
X125208000Y-64227401D02*
X124340000Y-64227401D01*
X125234000Y-64187401D02*
X124340000Y-64187401D01*
X125260000Y-64147401D02*
X124340000Y-64147401D01*
X125284000Y-64107401D02*
X124340000Y-64107401D01*
X125307000Y-64067401D02*
X124340000Y-64067401D01*
X125329000Y-64027401D02*
X124340000Y-64027401D01*
X125350000Y-63987401D02*
X124340000Y-63987401D01*
X125370000Y-63947401D02*
X124340000Y-63947401D01*
X125389000Y-63907401D02*
X124340000Y-63907401D01*
X125406000Y-63867401D02*
X124340000Y-63867401D01*
X125423000Y-63827401D02*
X124340000Y-63827401D01*
X125439000Y-63787401D02*
X124340000Y-63787401D01*
X125454000Y-63747401D02*
X124340000Y-63747401D01*
X125468000Y-63707401D02*
X124340000Y-63707401D01*
X125481000Y-63667401D02*
X124340000Y-63667401D01*
X125493000Y-63627401D02*
X124340000Y-63627401D01*
X125505000Y-63587401D02*
X124340000Y-63587401D01*
X125515000Y-63547401D02*
X124340000Y-63547401D01*
X125525000Y-63507401D02*
X124340000Y-63507401D01*
X125534000Y-63467401D02*
X124340000Y-63467401D01*
X125542000Y-63427401D02*
X124340000Y-63427401D01*
X125549000Y-63387401D02*
X124340000Y-63387401D01*
X125556000Y-63347401D02*
X124340000Y-63347401D01*
X125561000Y-63307401D02*
X124340000Y-63307401D01*
X125566000Y-63267401D02*
X124340000Y-63267401D01*
X125571000Y-63227401D02*
X124340000Y-63227401D01*
X125574000Y-63187401D02*
X124340000Y-63187401D01*
X125577000Y-63147401D02*
X124340000Y-63147401D01*
X125578000Y-63107401D02*
X124340000Y-63107401D01*
X125580000Y-63027401D02*
X124340000Y-63027401D01*
X125580000Y-63067401D02*
X124340000Y-63067401D01*
X125620000Y-63027401D02*
G75*
G02*
X121380000Y-63027401I-2120000J0D01*
G01*
X121380000Y-63027401D02*
G75*
G02*
X125620000Y-63027401I2120000J0D01*
G01*
%TO.C,J2*%
X44620000Y-116840000D02*
X44620000Y-115460000D01*
X46000000Y-116840000D02*
X44620000Y-116840000D01*
X47270000Y-114080000D02*
X57540000Y-114080000D01*
X47270000Y-116840000D02*
X47270000Y-114080000D01*
X47270000Y-116840000D02*
X57540000Y-116840000D01*
X57540000Y-116840000D02*
X57540000Y-114080000D01*
%TO.C,Green1*%
X73935000Y-52955000D02*
X73935000Y-56045000D01*
X73935000Y-52955170D02*
G75*
G02*
X79485000Y-54500000I2560000J-1544830D01*
G01*
X79485000Y-54500000D02*
G75*
G02*
X73935000Y-56044830I-2990000J0D01*
G01*
X78995000Y-54500000D02*
G75*
G02*
X73995000Y-54500000I-2500000J0D01*
G01*
X73995000Y-54500000D02*
G75*
G02*
X78995000Y-54500000I2500000J0D01*
G01*
%TO.C,C1*%
X58980199Y-104765000D02*
X59380199Y-104765000D01*
X59180199Y-104565000D02*
X59180199Y-104965000D01*
X61250000Y-103880000D02*
X61250000Y-105120000D01*
X61250000Y-106800000D02*
X61250000Y-108040000D01*
X61290000Y-103880000D02*
X61290000Y-105120000D01*
X61290000Y-106800000D02*
X61290000Y-108040000D01*
X61330000Y-103882000D02*
X61330000Y-105120000D01*
X61330000Y-106800000D02*
X61330000Y-108038000D01*
X61370000Y-103883000D02*
X61370000Y-105120000D01*
X61370000Y-106800000D02*
X61370000Y-108037000D01*
X61410000Y-103886000D02*
X61410000Y-105120000D01*
X61410000Y-106800000D02*
X61410000Y-108034000D01*
X61450000Y-103889000D02*
X61450000Y-105120000D01*
X61450000Y-106800000D02*
X61450000Y-108031000D01*
X61490000Y-103894000D02*
X61490000Y-105120000D01*
X61490000Y-106800000D02*
X61490000Y-108026000D01*
X61530000Y-103899000D02*
X61530000Y-105120000D01*
X61530000Y-106800000D02*
X61530000Y-108021000D01*
X61570000Y-103904000D02*
X61570000Y-105120000D01*
X61570000Y-106800000D02*
X61570000Y-108016000D01*
X61610000Y-103911000D02*
X61610000Y-105120000D01*
X61610000Y-106800000D02*
X61610000Y-108009000D01*
X61650000Y-103918000D02*
X61650000Y-105120000D01*
X61650000Y-106800000D02*
X61650000Y-108002000D01*
X61690000Y-103926000D02*
X61690000Y-105120000D01*
X61690000Y-106800000D02*
X61690000Y-107994000D01*
X61730000Y-103935000D02*
X61730000Y-105120000D01*
X61730000Y-106800000D02*
X61730000Y-107985000D01*
X61770000Y-103945000D02*
X61770000Y-105120000D01*
X61770000Y-106800000D02*
X61770000Y-107975000D01*
X61810000Y-103955000D02*
X61810000Y-105120000D01*
X61810000Y-106800000D02*
X61810000Y-107965000D01*
X61850000Y-103967000D02*
X61850000Y-105120000D01*
X61850000Y-106800000D02*
X61850000Y-107953000D01*
X61890000Y-103979000D02*
X61890000Y-105120000D01*
X61890000Y-106800000D02*
X61890000Y-107941000D01*
X61930000Y-103992000D02*
X61930000Y-105120000D01*
X61930000Y-106800000D02*
X61930000Y-107928000D01*
X61970000Y-104006000D02*
X61970000Y-105120000D01*
X61970000Y-106800000D02*
X61970000Y-107914000D01*
X62010000Y-104021000D02*
X62010000Y-105120000D01*
X62010000Y-106800000D02*
X62010000Y-107899000D01*
X62050000Y-104037000D02*
X62050000Y-105120000D01*
X62050000Y-106800000D02*
X62050000Y-107883000D01*
X62090000Y-104054000D02*
X62090000Y-105120000D01*
X62090000Y-106800000D02*
X62090000Y-107866000D01*
X62130000Y-104071000D02*
X62130000Y-105120000D01*
X62130000Y-106800000D02*
X62130000Y-107849000D01*
X62170000Y-104090000D02*
X62170000Y-105120000D01*
X62170000Y-106800000D02*
X62170000Y-107830000D01*
X62210000Y-104110000D02*
X62210000Y-105120000D01*
X62210000Y-106800000D02*
X62210000Y-107810000D01*
X62250000Y-104131000D02*
X62250000Y-105120000D01*
X62250000Y-106800000D02*
X62250000Y-107789000D01*
X62290000Y-104153000D02*
X62290000Y-105120000D01*
X62290000Y-106800000D02*
X62290000Y-107767000D01*
X62330000Y-104176000D02*
X62330000Y-105120000D01*
X62330000Y-106800000D02*
X62330000Y-107744000D01*
X62370000Y-104200000D02*
X62370000Y-105120000D01*
X62370000Y-106800000D02*
X62370000Y-107720000D01*
X62410000Y-104226000D02*
X62410000Y-105120000D01*
X62410000Y-106800000D02*
X62410000Y-107694000D01*
X62450000Y-104252000D02*
X62450000Y-105120000D01*
X62450000Y-106800000D02*
X62450000Y-107668000D01*
X62490000Y-104280000D02*
X62490000Y-105120000D01*
X62490000Y-106800000D02*
X62490000Y-107640000D01*
X62530000Y-104310000D02*
X62530000Y-105120000D01*
X62530000Y-106800000D02*
X62530000Y-107610000D01*
X62570000Y-104341000D02*
X62570000Y-105120000D01*
X62570000Y-106800000D02*
X62570000Y-107579000D01*
X62610000Y-104374000D02*
X62610000Y-105120000D01*
X62610000Y-106800000D02*
X62610000Y-107546000D01*
X62650000Y-104408000D02*
X62650000Y-105120000D01*
X62650000Y-106800000D02*
X62650000Y-107512000D01*
X62690000Y-104444000D02*
X62690000Y-105120000D01*
X62690000Y-106800000D02*
X62690000Y-107476000D01*
X62730000Y-104482000D02*
X62730000Y-105120000D01*
X62730000Y-106800000D02*
X62730000Y-107438000D01*
X62770000Y-104522000D02*
X62770000Y-105120000D01*
X62770000Y-106800000D02*
X62770000Y-107398000D01*
X62810000Y-104564000D02*
X62810000Y-105120000D01*
X62810000Y-106800000D02*
X62810000Y-107356000D01*
X62850000Y-104609000D02*
X62850000Y-107311000D01*
X62890000Y-104657000D02*
X62890000Y-107263000D01*
X62930000Y-104707000D02*
X62930000Y-107213000D01*
X62970000Y-104761000D02*
X62970000Y-107159000D01*
X63010000Y-104818000D02*
X63010000Y-107102000D01*
X63050000Y-104880000D02*
X63050000Y-107040000D01*
X63090000Y-104947000D02*
X63090000Y-106973000D01*
X63130000Y-105020000D02*
X63130000Y-106900000D01*
X63170000Y-105101000D02*
X63170000Y-106819000D01*
X63210000Y-105192000D02*
X63210000Y-106728000D01*
X63250000Y-105297000D02*
X63250000Y-106623000D01*
X63290000Y-105423000D02*
X63290000Y-106497000D01*
X63330000Y-105590000D02*
X63330000Y-106330000D01*
X63370000Y-105960000D02*
G75*
G02*
X59130000Y-105960000I-2120000J0D01*
G01*
X59130000Y-105960000D02*
G75*
G02*
X63370000Y-105960000I2120000J0D01*
G01*
%TO.C,M1*%
X120620000Y-94310000D02*
X122000000Y-94310000D01*
X120620000Y-95690000D02*
X120620000Y-94310000D01*
X120620000Y-96960000D02*
X120620000Y-104690000D01*
X120620000Y-96960000D02*
X123380000Y-96960000D01*
X120620000Y-104690000D02*
X123380000Y-104690000D01*
X123380000Y-96960000D02*
X123380000Y-104690000D01*
%TO.C,M2*%
X120000000Y-67620000D02*
X121380000Y-67620000D01*
X120000000Y-69000000D02*
X120000000Y-67620000D01*
X120000000Y-70270000D02*
X120000000Y-78000000D01*
X120000000Y-70270000D02*
X122760000Y-70270000D01*
X120000000Y-78000000D02*
X122760000Y-78000000D01*
X122760000Y-70270000D02*
X122760000Y-78000000D01*
%TO.C,C3*%
X121160000Y-88527401D02*
X119920000Y-88527401D01*
X121160000Y-88567401D02*
X119920000Y-88567401D01*
X121160000Y-88607401D02*
X119922000Y-88607401D01*
X121160000Y-88647401D02*
X119923000Y-88647401D01*
X121160000Y-88687401D02*
X119926000Y-88687401D01*
X121160000Y-88727401D02*
X119929000Y-88727401D01*
X121160000Y-88767401D02*
X119934000Y-88767401D01*
X121160000Y-88807401D02*
X119939000Y-88807401D01*
X121160000Y-88847401D02*
X119944000Y-88847401D01*
X121160000Y-88887401D02*
X119951000Y-88887401D01*
X121160000Y-88927401D02*
X119958000Y-88927401D01*
X121160000Y-88967401D02*
X119966000Y-88967401D01*
X121160000Y-89007401D02*
X119975000Y-89007401D01*
X121160000Y-89047401D02*
X119985000Y-89047401D01*
X121160000Y-89087401D02*
X119995000Y-89087401D01*
X121160000Y-89127401D02*
X120007000Y-89127401D01*
X121160000Y-89167401D02*
X120019000Y-89167401D01*
X121160000Y-89207401D02*
X120032000Y-89207401D01*
X121160000Y-89247401D02*
X120046000Y-89247401D01*
X121160000Y-89287401D02*
X120061000Y-89287401D01*
X121160000Y-89327401D02*
X120077000Y-89327401D01*
X121160000Y-89367401D02*
X120094000Y-89367401D01*
X121160000Y-89407401D02*
X120111000Y-89407401D01*
X121160000Y-89447401D02*
X120130000Y-89447401D01*
X121160000Y-89487401D02*
X120150000Y-89487401D01*
X121160000Y-89527401D02*
X120171000Y-89527401D01*
X121160000Y-89567401D02*
X120193000Y-89567401D01*
X121160000Y-89607401D02*
X120216000Y-89607401D01*
X121160000Y-89647401D02*
X120240000Y-89647401D01*
X121160000Y-89687401D02*
X120266000Y-89687401D01*
X121160000Y-89727401D02*
X120292000Y-89727401D01*
X121160000Y-89767401D02*
X120320000Y-89767401D01*
X121160000Y-89807401D02*
X120350000Y-89807401D01*
X121160000Y-89847401D02*
X120381000Y-89847401D01*
X121160000Y-89887401D02*
X120414000Y-89887401D01*
X121160000Y-89927401D02*
X120448000Y-89927401D01*
X121160000Y-89967401D02*
X120484000Y-89967401D01*
X121160000Y-90007401D02*
X120522000Y-90007401D01*
X121160000Y-90047401D02*
X120562000Y-90047401D01*
X121160000Y-90087401D02*
X120604000Y-90087401D01*
X122370000Y-90607401D02*
X121630000Y-90607401D01*
X122537000Y-90567401D02*
X121463000Y-90567401D01*
X122663000Y-90527401D02*
X121337000Y-90527401D01*
X122768000Y-90487401D02*
X121232000Y-90487401D01*
X122859000Y-90447401D02*
X121141000Y-90447401D01*
X122940000Y-90407401D02*
X121060000Y-90407401D01*
X123013000Y-90367401D02*
X120987000Y-90367401D01*
X123080000Y-90327401D02*
X120920000Y-90327401D01*
X123142000Y-90287401D02*
X120858000Y-90287401D01*
X123195000Y-86257600D02*
X123195000Y-86657600D01*
X123199000Y-90247401D02*
X120801000Y-90247401D01*
X123253000Y-90207401D02*
X120747000Y-90207401D01*
X123303000Y-90167401D02*
X120697000Y-90167401D01*
X123351000Y-90127401D02*
X120649000Y-90127401D01*
X123395000Y-86457600D02*
X122995000Y-86457600D01*
X123396000Y-90087401D02*
X122840000Y-90087401D01*
X123438000Y-90047401D02*
X122840000Y-90047401D01*
X123478000Y-90007401D02*
X122840000Y-90007401D01*
X123516000Y-89967401D02*
X122840000Y-89967401D01*
X123552000Y-89927401D02*
X122840000Y-89927401D01*
X123586000Y-89887401D02*
X122840000Y-89887401D01*
X123619000Y-89847401D02*
X122840000Y-89847401D01*
X123650000Y-89807401D02*
X122840000Y-89807401D01*
X123680000Y-89767401D02*
X122840000Y-89767401D01*
X123708000Y-89727401D02*
X122840000Y-89727401D01*
X123734000Y-89687401D02*
X122840000Y-89687401D01*
X123760000Y-89647401D02*
X122840000Y-89647401D01*
X123784000Y-89607401D02*
X122840000Y-89607401D01*
X123807000Y-89567401D02*
X122840000Y-89567401D01*
X123829000Y-89527401D02*
X122840000Y-89527401D01*
X123850000Y-89487401D02*
X122840000Y-89487401D01*
X123870000Y-89447401D02*
X122840000Y-89447401D01*
X123889000Y-89407401D02*
X122840000Y-89407401D01*
X123906000Y-89367401D02*
X122840000Y-89367401D01*
X123923000Y-89327401D02*
X122840000Y-89327401D01*
X123939000Y-89287401D02*
X122840000Y-89287401D01*
X123954000Y-89247401D02*
X122840000Y-89247401D01*
X123968000Y-89207401D02*
X122840000Y-89207401D01*
X123981000Y-89167401D02*
X122840000Y-89167401D01*
X123993000Y-89127401D02*
X122840000Y-89127401D01*
X124005000Y-89087401D02*
X122840000Y-89087401D01*
X124015000Y-89047401D02*
X122840000Y-89047401D01*
X124025000Y-89007401D02*
X122840000Y-89007401D01*
X124034000Y-88967401D02*
X122840000Y-88967401D01*
X124042000Y-88927401D02*
X122840000Y-88927401D01*
X124049000Y-88887401D02*
X122840000Y-88887401D01*
X124056000Y-88847401D02*
X122840000Y-88847401D01*
X124061000Y-88807401D02*
X122840000Y-88807401D01*
X124066000Y-88767401D02*
X122840000Y-88767401D01*
X124071000Y-88727401D02*
X122840000Y-88727401D01*
X124074000Y-88687401D02*
X122840000Y-88687401D01*
X124077000Y-88647401D02*
X122840000Y-88647401D01*
X124078000Y-88607401D02*
X122840000Y-88607401D01*
X124080000Y-88527401D02*
X122840000Y-88527401D01*
X124080000Y-88567401D02*
X122840000Y-88567401D01*
X124120000Y-88527401D02*
G75*
G02*
X119880000Y-88527401I-2120000J0D01*
G01*
X119880000Y-88527401D02*
G75*
G02*
X124120000Y-88527401I2120000J0D01*
G01*
%TO.C,Altitude1*%
X100200000Y-86210000D02*
X100200000Y-106790000D01*
X100200000Y-106790000D02*
X113030000Y-106790000D01*
X102870000Y-106790000D02*
X102870000Y-86210000D01*
X113030000Y-104120000D02*
X113030000Y-86210000D01*
X113030000Y-104120000D02*
X115700000Y-104120000D01*
X113030000Y-106790000D02*
X113030000Y-104120000D01*
X114300000Y-106790000D02*
X115700000Y-106790000D01*
X115700000Y-86210000D02*
X100200000Y-86210000D01*
X115700000Y-104120000D02*
X115700000Y-86210000D01*
X115700000Y-106790000D02*
X115700000Y-105390000D01*
%TO.C,R1*%
X47000000Y-103900000D02*
X47000000Y-104850000D01*
X47000000Y-109640000D02*
X47000000Y-108690000D01*
X46080000Y-108690000D02*
X47920000Y-108690000D01*
X47920000Y-104850000D01*
X46080000Y-104850000D01*
X46080000Y-108690000D01*
%TD*%
M02*
